REM GENRE "Electronic"
REM DATE "2025"
REM COMMENT "Sox Generated Test Sample: ISO-8859-1 character test: è, é, ì, ò, à, ç, °"
PERFORMER "Sox ISO-8859-1"
TITLE "Test Samples"

FILE "Three Samples.flac" WAVE

  TRACK 01 AUDIO
    TITLE "300 Hz, ISO-8859-1"
    INDEX 01 00:00:00
  TRACK 02 AUDIO
    TITLE "400 Hz, ISO-8859-1"
    INDEX 01 00:02:00
  TRACK 03 AUDIO
    TITLE "500 Hz, ISO-8859-1 (è, é, ì, ò, à, ç, °)"
    INDEX 01 00:04:00
